<?xml version="1.0" encoding="UTF-8" standalone="no"?>
<!-- Created with Inkscape (http://www.inkscape.org/) -->

<svg
   xmlns:dc="http://purl.org/dc/elements/1.1/"
   xmlns:cc="http://creativecommons.org/ns#"
   xmlns:rdf="http://www.w3.org/1999/02/22-rdf-syntax-ns#"
   xmlns:svg="http://www.w3.org/2000/svg"
   xmlns="http://www.w3.org/2000/svg"
   xmlns:sodipodi="http://sodipodi.sourceforge.net/DTD/sodipodi-0.dtd"
   xmlns:inkscape="http://www.inkscape.org/namespaces/inkscape"
   id="svg2"
   sodipodi:docname="leaf-2.svg"
   viewBox="0 0 900.00002 899.99999"
   version="1.1"
   inkscape:version="0.92.3 (2405546, 2018-03-11)"
   width="900"
   height="900">
  <g
     id="layer1"
     inkscape:label="Calque 1"
     inkscape:groupmode="layer">
    <path
       id="path3183"
       d="M 450.21891,829.07436 450.45107,828.2146 451.08318,826.45268 452.01869,824.04535 453.16105,821.24933 454.58598,816.55769 454.94938,810.28998 454.19894,800.24067 452.28238,784.20422 450.62632,769.80478 448.94165,752.77806 447.4255,735.252 446.27499,719.35455 445.3172,705.64829 444.32572,694.08884 443.41751,685.89319 442.70957,682.27835 440.86599,681.38101 436.71054,680.92581 430.23217,680.91228 421.41982,681.33993 373.56476,684.65278 343.85947,687.66778 322.82381,691.70197 300.97762,698.07241 291.07099,700.83975 281.19342,702.73412 269.73448,703.99355 255.08372,704.85607 243.81519,705.231 234.0347,705.326 226.79067,705.14628 223.13148,704.69709 221.38605,703.73684 221.1582,702.3985 222.62257,700.17983 225.95381,696.57855 231.19536,690.09197 234.577,683.59589 235.88687,677.65205 234.91308,672.82217 228.82264,667.09404 216.86155,660.89729 199.86848,654.59381 178.68212,648.54552 166.86084,645.45427 156.89205,642.63894 149.82455,640.41012 146.70709,639.07841 146.74605,637.42634 148.50718,634.35023 151.82972,630.08232 156.55289,624.85485 163.29377,617.40023 167.04858,611.84631 168.50855,606.78605 168.36496,600.81242 165.85132,594.25087 159.17953,586.54175 147.73087,577.09949 130.88664,565.3385 120.47053,558.29877 111.94064,552.30182 106.17719,547.98291 104.06044,545.97729 105.12647,544.92448 108.02903,543.19975 112.32482,541.04215 117.57054,538.69077 132.46189,531.37219 139.91964,523.95905 141.16234,514.0214 137.4085,499.12927 132.59721,483.22865 127.6632,465.41277 123.404,448.67904 120.61715,436.0249 116.40875,417.45661 110.19469,394.18517 103.69582,372.32076 98.633016,357.97356 96.050187,352.97606 92.500473,347.2684 88.451811,341.55409 84.372136,336.53665 80.726756,332.17248 77.860562,328.23817 76.060862,325.16522 75.614966,323.38514 94.467188,320.40204 134.89222,323.96985 179.65288,331.78526 211.51198,341.54495 216.84722,344.10829 223.64803,347.17255 231.0402,350.35319 238.14955,353.26561 245.40835,356.42409 253.20602,360.27465 260.60641,364.33039 266.67337,368.10438 284.77547,379.23659 296.47145,382.95383 303.12508,379.25763 306.10013,368.14957 307.90483,356.21672 310.71843,343.8241 314.32131,331.80723 318.49383,321.00163 320.65917,315.11523 323.16382,306.76169 325.69751,297.05347 327.94995,287.10303 330.38786,274.58277 331.51659,266.14043 331.46689,260.01047 330.36953,254.42739 328.03697,244.00636 329.10196,239.70026 334.70552,240.99357 345.98871,247.37075 355.68932,252.59575 364.41363,256.15901 371.17511,257.73331 374.9872,256.99145 375.27946,255.82477 375.13501,253.58837 374.59593,250.60377 373.70428,247.19249 372.51524,241.84909 372.85642,236.04084 375.2092,227.13944 380.05493,212.51659 384.04158,201.60877 388.2989,191.28296 392.32292,182.69046 395.60965,176.98255 402.15222,167.27407 410.05213,154.637 419.72417,138.38949 431.58312,117.84967 445.34739,94.888179 457.07757,77.603895 466.24471,66.710188 472.31989,62.920426 473.52927,63.607271 474.32889,65.767704 474.74953,69.551567 474.82197,75.108706 475.03267,80.795118 475.73314,87.267787 476.81373,93.730079 478.16477,99.385356 484.74774,116.91069 495.04251,138.58652 507.41166,161.21256 520.21777,181.58853 528.72267,193.72108 534.1699,200.41951 538.12363,203.27311 542.14801,203.87114 545.1129,203.59972 548.27868,202.86069 551.26639,201.76694 553.69704,200.43133 556.46707,198.62586 558.2679,198.04271 559.66924,198.69403 561.24079,200.59197 562.41079,203.88143 563.55019,210.15528 564.56351,218.75407 565.3553,229.01837 566.28158,241.7583 567.40826,250.34172 568.99134,256.12611 571.28683,260.46899 578.36697,271.64063 583.82518,281.77671 587.95354,291.48147 591.04415,301.35914 592.71249,307.21906 594.44033,312.45358 596.02376,316.49164 597.25883,318.76217 598.59166,321.1701 600.44115,325.58214 602.56272,331.37013 604.71179,337.90594 607.19733,346.93887 608.78829,355.69177 609.67148,365.57168 610.03371,377.98563 610.89123,401.46656 613.89457,412.78564 620.74334,414.1269 633.13715,407.67437 638.79351,404.31397 644.61602,401.02215 649.91944,398.17686 654.01856,396.15602 658.024,394.20354 663.07183,391.54439 668.51593,388.52807 673.71017,385.5041 684.79474,379.766 698.62076,374.19166 715.11102,368.80911 734.1883,363.64641 780.91891,351.85498 811.17134,343.55218 830.52643,337.07576 844.56499,330.76348 845.1686,331.05593 845.66291,332.4412 845.99692,334.69518 846.11959,337.59378 845.44803,342.24018 843.47694,348.69013 840.27173,356.76017 835.89779,366.26684 831.41957,375.99279 826.78282,386.91578 822.53467,397.69901 819.22229,407.00568 813.69888,423.23928 807.51056,440.14719 800.22955,458.86076 791.42809,480.51137 786.91488,490.73644 782.60723,498.8696 778.11638,505.56607 773.05354,511.48109 769.23059,515.59527 766.09993,519.16813 763.98463,521.81655 763.20773,523.15739 763.50683,523.95466 764.32121,525.1229 765.52648,526.50507 766.99826,527.94412 769.44885,529.49766 772.91614,530.56383 777.57008,531.17777 783.58067,531.37461 788.54751,531.46451 792.61493,531.70929 795.36319,532.07156 796.37255,532.51394 795.10515,536.26841 791.80301,542.04124 787.21623,548.65476 782.09489,554.93129 770.58999,568.5797 758.75813,583.89931 749.14526,597.46192 744.29735,605.8393 743.47391,608.82362 743.22119,611.47592 743.54034,613.88407 744.4325,616.13594 748.51041,620.83348 755.46778,626.26064 763.78559,631.36973 771.94479,635.11306 775.01558,636.39349 777.68376,637.84198 779.6631,639.28068 780.66735,640.53178 780.07446,643.01537 777.5305,645.98721 774.09429,648.4798 770.82465,649.52566 768.21134,650.34687 762.44449,652.58284 754.37622,655.8921 744.85867,659.9332 716.46009,672.68119 699.29565,681.97457 690.84513,689.46449 688.58833,696.80212 690.40139,703.19636 695.1695,711.29144 701.88602,719.64539 709.54435,726.81628 712.01341,729.01364 713.78628,731.12999 714.7154,732.95035 714.65318,734.25971 702.00423,736.21531 674.59347,735.95173 642.3006,733.85891 615.00532,730.32678 590.602,725.49305 573.38269,721.64372 561.13694,718.23418 551.65429,714.71983 544.56506,711.99097 535.12624,708.74405 524.56943,705.38581 514.12622,702.32302 503.80271,699.27972 493.57297,695.97455 484.61819,692.80618 478.11959,690.1733 473.14087,688.07208 468.32285,686.35134 464.21522,685.18866 461.36762,684.76163 458.64141,685.05558 457.16346,686.56359 456.55469,690.22489 456.43601,696.97872 457.08449,713.12718 458.88616,733.17673 461.62542,755.13291 465.08664,777.0013 468.87459,799.59065 470.48307,813.52535 470.05254,821.40682 467.72345,825.8365 463.69742,828.16448 457.82313,829.77871 452.52248,830.23126 450.2174,829.07421 450.21778,829.07425 450.21816,829.07428 450.21853,829.07432 Z"
       style="fill:none;stroke:#000000;stroke-width:2.07280159;stroke-opacity:1"
       inkscape:connector-curvature="0"
       sodipodi:nodetypes="ccccccccccccccccccccccccccccccccccccccccccccccccccccccccccccccccccccccccccccccccccccccccccccccccccccccccccccccccccccccccccccccccccccccccccccccccccccccccccccccccccccccccccccccccccccccccccccccccccccccccccccccccccccccccccccccccccccccccccccccccccccccccccccccccccccccccccccccccccccccccccccccccccccccccccccccccccccccccccccccccccccccccc" />
  </g>
</svg>
