<?xml version="1.0" encoding="UTF-8" standalone="no"?>
<svg
   xmlns:dc="http://purl.org/dc/elements/1.1/"
   xmlns:cc="http://creativecommons.org/ns#"
   xmlns:rdf="http://www.w3.org/1999/02/22-rdf-syntax-ns#"
   xmlns:svg="http://www.w3.org/2000/svg"
   xmlns="http://www.w3.org/2000/svg"
   xmlns:sodipodi="http://sodipodi.sourceforge.net/DTD/sodipodi-0.dtd"
   xmlns:inkscape="http://www.inkscape.org/namespaces/inkscape"
   height="769.5744"
   width="772.82471"
   version="1.1"
   viewBox="0 0 772.82472 769.57439"
   id="svg2"
   sodipodi:docname="leaf.svg"
   inkscape:version="0.92.3 (2405546, 2018-03-11)">
  <g
     id="layer1">
    <path
       id="path3183"
       d="M 376.41485,766.92192 376.64701,766.06216 377.27912,764.30024 378.21463,761.89291 379.35699,759.09689 380.78192,754.40525 381.14532,748.13754 380.39488,738.08823 378.47832,722.05178 376.82226,707.65234 375.13759,690.62562 373.62144,673.09956 372.47093,657.20211 371.51314,643.49585 370.52166,631.9364 369.61345,623.74075 368.90551,620.12591 367.06193,619.22857 362.90648,618.77337 356.42811,618.75984 347.61576,619.18749 299.7607,622.50034 270.05541,625.51534 249.01975,629.54953 227.17356,635.91997 217.26693,638.68731 207.38936,640.58168 195.93042,641.84111 181.27966,642.70363 170.01113,643.07856 160.23064,643.17356 152.98661,642.99384 149.32742,642.54465 147.58199,641.5844 147.35414,640.24606 148.81851,638.02739 152.14975,634.42611 157.3913,627.93953 160.77294,621.44345 162.08281,615.49961 161.10902,610.66973 155.01858,604.9416 143.05749,598.74485 126.06442,592.44137 104.87806,586.39308 93.056783,583.30183 83.087993,580.4865 76.020493,578.25768 72.903033,576.92597 72.941993,575.2739 74.703123,572.19779 78.025663,567.92988 82.748833,562.70241 89.489713,555.24779 93.244523,549.69387 94.704493,544.63361 94.560903,538.65998 92.047263,532.09843 85.375473,524.38931 73.926813,514.94705 57.082583,503.18606 46.666473,496.14633 38.136583,490.14938 32.373133,485.83047 30.256383,483.82485 31.322413,482.77204 34.224973,481.04731 38.520763,478.88971 43.766483,476.53833 58.657833,469.21975 66.115583,461.80661 67.358283,451.86896 63.604443,436.97683 58.793153,421.07621 53.859143,403.26033 49.599943,386.5266 46.813093,373.87246 42.604693,355.30417 36.390633,332.03273 29.891763,310.16832 24.828959,295.82112 22.24613,290.82362 18.696416,285.11596 14.647754,279.40165 10.568079,274.38421 6.9226994,270.02004 4.0565054,266.08573 2.2568054,263.01278 1.8109094,261.2327 20.663131,258.2496 61.088163,261.81741 105.84882,269.63282 137.70792,279.39251 143.04316,281.95585 149.84397,285.02011 157.23614,288.20075 164.34549,291.11317 171.60429,294.27165 179.40196,298.12221 186.80235,302.17795 192.86931,305.95194 210.97141,317.08415 222.66739,320.80139 229.32102,317.10519 232.29607,305.99713 234.10077,294.06428 236.91437,281.67166 240.51725,269.65479 244.68977,258.84919 246.85511,252.96279 249.35976,244.60925 251.89345,234.90103 254.14589,224.95059 256.5838,212.43033 257.71253,203.98799 257.66283,197.85803 256.56547,192.27495 254.23291,181.85392 255.2979,177.54782 260.90146,178.84113 272.18465,185.21831 281.88526,190.44331 290.60957,194.00657 297.37105,195.58087 301.18314,194.83901 301.4754,193.67233 301.33095,191.43593 300.79187,188.45133 299.90022,185.04005 298.71118,179.69665 299.05236,173.8884 301.40514,164.987 306.25087,150.36415 310.23752,139.45633 314.49484,129.13052 318.51886,120.53802 321.80559,114.83011 328.34816,105.12163 336.24807,92.484558 345.92011,76.237048 357.77906,55.697228 371.54333,32.735737 383.27351,15.451453 392.44065,4.5577461 398.51583,0.76798411 399.72521,1.4548291 400.52483,3.6152621 400.94547,7.3991251 401.01791,12.956264 401.22861,18.642676 401.92908,25.115345 403.00967,31.577637 404.36071,37.232914 410.94368,54.758248 421.23845,76.434078 433.6076,99.060118 446.41371,119.43609 454.91861,131.56864 460.36584,138.26707 464.31957,141.12067 468.34395,141.7187 471.30884,141.44728 474.47462,140.70825 477.46233,139.6145 479.89298,138.27889 482.66301,136.47342 484.46384,135.89027 485.86518,136.54159 487.43673,138.43953 488.60673,141.72899 489.74613,148.00284 490.75945,156.60163 491.55124,166.86593 492.47752,179.60586 493.6042,188.18928 495.18728,193.97367 497.48277,198.31655 504.56291,209.48819 510.02112,219.62427 514.14948,229.32903 517.24009,239.2067 518.90843,245.06662 520.63627,250.30114 522.2197,254.3392 523.45477,256.60973 524.7876,259.01766 526.63709,263.4297 528.75866,269.21769 530.90773,275.7535 533.39327,284.78643 534.98423,293.53933 535.86742,303.41924 536.22965,315.83319 537.08717,339.31412 540.09051,350.6332 546.93928,351.97446 559.33309,345.52193 564.98945,342.16153 570.81196,338.86971 576.11538,336.02442 580.2145,334.00358 584.21994,332.0511 589.26777,329.39195 594.71187,326.37563 599.90611,323.35166 610.99068,317.61356 624.8167,312.03922 641.30696,306.65667 660.38424,301.49397 707.11485,289.70254 737.36728,281.39974 756.72237,274.92332 770.76093,268.61104 771.36454,268.90349 771.85885,270.28876 772.19286,272.54274 772.31553,275.44134 771.64397,280.08774 769.67288,286.53769 766.46767,294.60773 762.09373,304.1144 757.61551,313.84035 752.97876,324.76334 748.73061,335.54657 745.41823,344.85324 739.89482,361.08684 733.7065,377.99475 726.42549,396.70832 717.62403,418.35893 713.11082,428.584 708.80317,436.71716 704.31232,443.41363 699.24948,449.32865 695.42653,453.44283 692.29587,457.01569 690.18057,459.66411 689.40367,461.00495 689.70277,461.80222 690.51715,462.97046 691.72242,464.35263 693.1942,465.79168 695.64479,467.34522 699.11208,468.41139 703.76602,469.02533 709.77661,469.22217 714.74345,469.31207 718.81087,469.55685 721.55913,469.91912 722.56849,470.3615 721.30109,474.11597 717.99895,479.8888 713.41217,486.50232 708.29083,492.77885 696.78593,506.42726 684.95407,521.74687 675.3412,535.30948 670.49329,543.68686 669.66985,546.67118 669.41713,549.32348 669.73628,551.73163 670.62844,553.9835 674.70635,558.68104 681.66372,564.1082 689.98153,569.21729 698.14073,572.96062 701.21152,574.24105 703.8797,575.68954 705.85904,577.12824 706.86329,578.37934 706.2704,580.86293 703.72644,583.83477 700.29023,586.32736 697.02059,587.37322 694.40728,588.19443 688.64043,590.4304 680.57216,593.73966 671.05461,597.78076 642.65603,610.52875 625.49159,619.82213 617.04107,627.31205 614.78427,634.64968 616.59733,641.04392 621.36544,649.139 628.08196,657.49295 635.74029,664.66384 638.20935,666.8612 639.98222,668.97755 640.91134,670.79791 640.84912,672.10727 628.20017,674.06287 600.78941,673.79929 568.49654,671.70647 541.20126,668.17434 516.79794,663.34061 499.57863,659.49128 487.33288,656.08174 477.85023,652.56739 470.761,649.83853 461.32218,646.59161 450.76537,643.23337 440.32216,640.17058 429.99865,637.12728 419.76891,633.82211 410.81413,630.65374 404.31553,628.02086 399.33681,625.91964 394.51879,624.1989 390.41116,623.03622 387.56356,622.60919 384.83735,622.90314 383.3594,624.41115 382.75063,628.07245 382.63195,634.82628 383.28043,650.97474 385.0821,671.02429 387.82136,692.98047 391.28258,714.84886 395.07053,737.43821 396.67901,751.37291 396.24848,759.25438 393.91939,763.68406 389.89336,766.01204 384.01907,767.62627 378.71842,768.07882 376.41334,766.92177 376.41372,766.92181 376.4141,766.92184 376.41447,766.92188 376.41485,766.92192"
       style="fill:none;stroke:#000000;stroke-width:2.93138409;stroke-opacity:1"
       inkscape:connector-curvature="0"
       sodipodi:nodetypes="ccccccccccccccccccccccccccccccccccccccccccccccccccccccccccccccccccccccccccccccccccccccccccccccccccccccccccccccccccccccccccccccccccccccccccccccccccccccccccccccccccccccccccccccccccccccccccccccccccccccccccccccccccccccccccccccccccccccccccccccccccccccccccccccccccccccccccccccccccccccccccccccccccccccccccccccccccccccccccccccccccccccccc" />
  </g>
</svg>
